<svg xmlns="http://www.w3.org/2000/svg" viewBox="0 0 70 80"><title>turtle</title><path d="M77.25,29.58c0-4.66-5.41-8.3-12.32-8.3a16.26,16.26,0,0,0-8,1.94,24.7,24.7,0,0,0-7.23-3.71,18.08,18.08,0,0,0,1.53-7.15c0-7-4.52-10.1-9-10.1s-9,3.12-9,10.1a18.08,18.08,0,0,0,1.53,7.15,24.7,24.7,0,0,0-7.23,3.71,16.26,16.26,0,0,0-8-1.94c-6.91,0-12.32,3.65-12.32,8.3,0,2.15,1.74,3.59,5.18,4.3a39.84,39.84,0,0,0,6.61.6,24.79,24.79,0,0,0-1.58,8.72,37.16,37.16,0,0,0,2.66,13,18.14,18.14,0,0,0-3.85,1.67A16.08,16.08,0,0,0,10.05,64c-1.37,2.6-1.48,5.15-.31,7.18a3.39,3.39,0,0,0,2.12,1.6,4.84,4.84,0,0,0,1.25.15c3.2,0,7.85-2.54,13.09-5.59l0.17-.1c4.31,5.48,9.35,8.66,14.51,9.14v4.45a1.37,1.37,0,1,0,2.75,0V76.43c5.16-.48,10.21-3.67,14.51-9.14l0.17,0.1C63.54,70.43,68.19,73,71.39,73a4.84,4.84,0,0,0,1.25-.15,3.39,3.39,0,0,0,2.12-1.6c2.32-4-.55-9.9-6.53-13.37a18.17,18.17,0,0,0-3.85-1.67A37.16,37.16,0,0,0,67,43.2a24.79,24.79,0,0,0-1.58-8.72,39.85,39.85,0,0,0,6.61-.6C75.51,33.17,77.25,31.73,77.25,29.58Zm-13,13.62c0,0.49,0,1,0,1.49H53.94l-4.79-8.32,8.72-8.74A22.05,22.05,0,0,1,64.28,43.2ZM57.64,63.27L49.43,55l4.37-7.59H63.92A41.67,41.67,0,0,1,57.64,63.27ZM20.56,47.34H30.63L35.07,55l-8.21,8.23A41.63,41.63,0,0,1,20.56,47.34ZM20.22,43.2A22,22,0,0,1,26.3,28l8.81,8.83-4.48,7.78H20.26C20.23,44.11,20.22,43.65,20.22,43.2Zm22-22.09A21.89,21.89,0,0,1,55.81,25.8l-9.35,9.38H37.37L28.32,26.1A21.89,21.89,0,0,1,42.25,21.11ZM37.63,54L33,46l4.62-8h9.24l4.62,8-4.62,8H37.63ZM36,12.35C36,7.82,38.39,5,42.25,5s6.26,2.81,6.26,7.35A15.46,15.46,0,0,1,47,18.81a24.77,24.77,0,0,0-9.55,0A15.46,15.46,0,0,1,36,12.35ZM13,31.17c-1.87-.38-3-1-3-1.59,0-3,4.38-5.54,9.57-5.54a14.36,14.36,0,0,1,5.67,1.11,25,25,0,0,0-5,6.59A42.13,42.13,0,0,1,13,31.17Zm0.19,39a2.36,2.36,0,0,1-.61-0.07,0.64,0.64,0,0,1-.44-0.31c-0.68-1.18-.55-2.78.36-4.52a13.31,13.31,0,0,1,5.16-5.08,15.28,15.28,0,0,1,3.55-1.5,43.63,43.63,0,0,0,3.35,6.05L24.73,65C21.3,67,15.82,70.22,13.18,70.22Zm29.07,3.52c-5.21,0-10-3.39-13.76-8.2l8.78-8.8h10L56,65.53C52.24,70.35,47.46,73.74,42.25,73.74Zm24.6-13.5c4.49,2.6,7,7,5.52,9.6a0.64,0.64,0,0,1-.44.31c-2.31.62-8.44-2.94-12.16-5.11l0.18-.26a43.64,43.64,0,0,0,3.35-6.05A15.28,15.28,0,0,1,66.85,60.24Zm-2.62-28.5a25,25,0,0,0-5-6.59A14.36,14.36,0,0,1,64.93,24c5.19,0,9.57,2.54,9.57,5.54,0,0.62-1.11,1.21-3,1.59A42.13,42.13,0,0,1,64.24,31.74Z" transform="translate(-7.25 -2.25)" fill="#fff"/></svg>